# xmcd
#
# Track frame offsets: 
#        150
#        21097
#        39475
#        88572
#        146027
#        161870
#        210397
#
# Disc length: 4367 seconds
#
# Revision: 1
# Processed by: cddbd v1.4PL0 Copyright (c) Steve Scherf et al.
# Submitted via: ExactAudioCopy v0.90b4
#
DISCID=58110d07
DTITLE=Phil Lesh and Friends - Love Will See You Through - Disc 2
DYEAR=1999
DGENRE=Folk/Rock
TTITLE0=Dupree's Diamond Blues
TTITLE1=I Am The Light Of This World
TTITLE2=Good Shepherd
TTITLE3=Mashed Potato Jam
TTITLE4=New Potato Caboose
TTITLE5=Caboose Jam
TTITLE6=St. Stephen
EXTD=
EXTT0=
EXTT1=
EXTT2=
EXTT3=
EXTT4=
EXTT5=
EXTT6=
PLAYORDER=
